<svg version="1.1" xmlns="http://www.w3.org/2000/svg" viewBox="0 0 587.6703130143227 351.10273762080476" width="587.6703130143227" height="351.10273762080476">
  <!-- svg-source:excalidraw -->
  
  <defs>
    <style class="style-fonts">
      
    </style>
    
  </defs>
  <rect x="0" y="0" width="587.6703130143227" height="351.10273762080476" fill="#ffffff"></rect><g stroke-linecap="round"><g transform="translate(10.091036877627289 340.68716172398683) rotate(0 283.7896380683477 -165.34358086199342)"><path d="M0 0 C31.18 -46.59, 62.36 -93.19, 94.3 -140.92 M0 0 C31.09 -46.46, 62.18 -92.92, 94.3 -140.92 M94.3 -140.92 C103.28 -125.15, 112.26 -109.38, 126.02 -85.2 M94.3 -140.92 C105.41 -121.4, 116.53 -101.87, 126.02 -85.2 M126.02 -85.2 C154.26 -124.42, 182.5 -163.64, 225.9 -223.91 M126.02 -85.2 C149.55 -117.88, 173.08 -150.55, 225.9 -223.91 M225.9 -223.91 C250.38 -198.11, 274.87 -172.31, 295.88 -150.18 M225.9 -223.91 C252.9 -195.46, 279.91 -167.01, 295.88 -150.18 M295.88 -150.18 C320.47 -189.03, 345.05 -227.89, 410.11 -330.69 M295.88 -150.18 C335.8 -213.26, 375.71 -276.34, 410.11 -330.69 M410.11 -330.69 C454.08 -239.92, 498.06 -149.15, 567.58 -5.64 M410.11 -330.69 C459.29 -229.17, 508.47 -127.65, 567.58 -5.64" stroke="#1e1e1e" stroke-width="4" fill="none"></path></g></g><mask></mask><g stroke-linecap="round"><g transform="translate(10 341.10273762080476) rotate(0 283.79567356132884 -2.9869348964247706)"><path d="M0 0 C122.89 -1.29, 245.79 -2.59, 567.59 -5.97 M0 0 C217.62 -2.29, 435.23 -4.58, 567.59 -5.97" stroke="#1e1e1e" stroke-width="4" fill="none"></path></g></g><mask></mask></svg>